<svg width="131" height="103" viewBox="0 0 131 103" fill="none" xmlns="http://www.w3.org/2000/svg">
<g opacity="0.2" clip-path="url(#clip0_148_11490)">
<path d="M122.411 98.1127H0.642212C0.642212 81.8849 7.05678 66.3217 18.4748 54.8469C29.8928 43.3721 45.3789 36.9257 61.5264 36.9257C77.6739 36.9257 93.16 43.3721 104.578 54.8469C115.996 66.3217 122.411 81.8849 122.411 98.1127Z" fill="#D1D3D4"/>
<path d="M42.9306 98.1262V62.2927H53.5933C56.32 62.2872 58.9347 61.202 60.8707 59.2724C62.8068 57.3428 63.9081 54.7242 63.9362 51.9841L64.1708 26.2662C64.1694 25.4549 63.984 24.6545 63.6286 23.926C63.2732 23.1975 62.7572 22.56 62.1198 22.062C61.4825 21.564 60.7405 21.2187 59.9503 21.0522C59.1601 20.8857 58.3426 20.9025 57.5599 21.1012C56.3972 21.4405 55.3784 22.1557 54.6613 23.136C53.9441 24.1163 53.5688 25.307 53.5933 26.5234V47.3763C53.5655 48.4944 53.1039 49.5573 52.307 50.3381C51.5102 51.119 50.4412 51.5558 49.3282 51.5555H42.9306V5.58479C42.9627 4.37578 42.598 3.18976 41.8926 2.2098C41.1873 1.22984 40.1807 0.510427 39.028 0.162614C38.2453 -0.0361539 37.4278 -0.0529337 36.6376 0.11355C35.8474 0.280034 35.1055 0.625398 34.4681 1.12338C33.8307 1.62136 33.3147 2.25885 32.9593 2.98737C32.6039 3.71589 32.4185 4.51626 32.4171 5.32762V63.3857H26.51C25.3971 63.386 24.3281 62.9492 23.5312 62.1684C22.7343 61.3876 22.2727 60.3246 22.2449 59.2065V36.4462C22.2755 35.2253 21.8999 34.029 21.1776 33.0468C20.4552 32.0647 19.4274 31.3528 18.257 31.024C17.4743 30.8253 16.6568 30.8085 15.8666 30.975C15.0764 31.1415 14.3345 31.4868 13.6971 31.9848C13.0597 32.4828 12.5437 33.1203 12.1883 33.8488C11.8329 34.5773 11.6475 35.3777 11.6461 36.189V63.4071C11.6461 66.2491 12.7695 68.9747 14.7692 70.9843C16.7688 72.9939 19.4809 74.1229 22.3089 74.1229H32.2892V98.1262H0.642212V103.013H122.411V98.1262H42.9306Z" fill="#808285"/>
<path d="M119.851 69.4162C118.608 69.4029 117.381 69.1314 116.247 68.6188C115.113 68.1061 114.097 67.3634 113.262 66.4373C112.738 65.8134 112.085 65.3119 111.348 64.9677C110.612 64.6234 109.809 64.4448 108.997 64.4441C108.183 64.4389 107.379 64.6149 106.642 64.9596C105.904 65.3042 105.252 65.8089 104.732 66.4373C103.891 67.3501 102.872 68.0785 101.738 68.5766C100.604 69.0747 99.3797 69.3319 98.1421 69.3319C96.9046 69.3319 95.6803 69.0747 94.5464 68.5766C93.4124 68.0785 92.3931 67.3501 91.5526 66.4373C90.7997 65.6005 89.8449 64.9731 88.7803 64.6156C88.3829 64.5292 88.0259 64.311 87.7668 63.9962C87.5077 63.6813 87.3614 63.2881 87.3514 62.8796C87.3517 62.6031 87.4153 62.3304 87.5373 62.0826C87.6593 61.8348 87.8365 61.6185 88.0551 61.4506C88.2737 61.2828 88.5279 61.1677 88.7979 61.1145C89.0679 61.0613 89.3464 61.0712 89.6119 61.1437C91.2285 61.6548 92.6938 62.5605 93.877 63.7797C94.3872 64.4035 95.0285 64.9059 95.7549 65.2509C96.4813 65.5958 97.2747 65.7747 98.0781 65.7747C98.8816 65.7747 99.675 65.5958 100.401 65.2509C101.128 64.9059 101.769 64.4035 102.279 63.7797C103.12 62.8669 104.139 62.1385 105.273 61.6404C106.407 61.1423 107.631 60.8851 108.869 60.8851C110.106 60.8851 111.331 61.1423 112.465 61.6404C113.599 62.1385 114.618 62.8669 115.458 63.7797C115.971 64.4039 116.614 64.9065 117.342 65.2515C118.07 65.5965 118.865 65.7755 119.67 65.7755C120.475 65.7755 121.27 65.5965 121.998 65.2515C122.727 64.9065 123.37 64.4039 123.882 63.7797C125.059 62.5533 126.527 61.6464 128.147 61.1437C128.413 61.0712 128.691 61.0613 128.961 61.1145C129.231 61.1677 129.485 61.2828 129.704 61.4506C129.922 61.6185 130.1 61.8348 130.222 62.0826C130.344 62.3304 130.407 62.6031 130.408 62.8796C130.399 63.2851 130.256 63.6761 130.001 63.9906C129.746 64.305 129.394 64.525 129 64.6156C128.018 65.0031 127.146 65.6289 126.462 66.4373C125.624 67.364 124.603 68.1069 123.466 68.6195C122.328 69.1321 121.098 69.4033 119.851 69.4162Z" fill="#808285"/>
<path d="M97.8007 83.5826C96.5637 83.5802 95.3403 83.3221 94.2067 82.8244C93.0731 82.3267 92.0534 81.5999 91.2112 80.6893C90.699 80.0652 90.0558 79.5626 89.3276 79.2176C88.5995 78.8725 87.8044 78.6936 86.9994 78.6936C86.1944 78.6936 85.3993 78.8725 84.6712 79.2176C83.943 79.5626 83.2998 80.0652 82.7876 80.6893C81.949 81.6016 80.9315 82.3296 79.7993 82.8275C78.6671 83.3255 77.4446 83.5825 76.2087 83.5825C74.9728 83.5825 73.7503 83.3255 72.6181 82.8275C71.4859 82.3296 70.4684 81.6016 69.6298 80.6893C68.8466 79.8283 67.8547 79.1859 66.7509 78.8248C66.3574 78.7342 66.0053 78.5143 65.7504 78.1998C65.4954 77.8854 65.3522 77.4944 65.3434 77.0888C65.3469 76.8142 65.4128 76.5439 65.5363 76.2988C65.6597 76.0537 65.8373 75.8402 66.0555 75.6747C66.2736 75.5093 66.5266 75.3962 66.795 75.3441C67.0634 75.292 67.3401 75.3023 67.6039 75.3743C69.2239 75.8666 70.692 76.7666 71.869 77.989C72.3812 78.6131 73.0244 79.1157 73.7525 79.4607C74.4807 79.8058 75.2757 79.9847 76.0808 79.9847C76.8858 79.9847 77.6808 79.8058 78.409 79.4607C79.1371 79.1157 79.7803 78.6131 80.2925 77.989C81.1331 77.0761 82.1523 76.3477 83.2863 75.8496C84.4203 75.3515 85.6445 75.0944 86.8821 75.0944C88.1197 75.0944 89.3439 75.3515 90.4779 75.8496C91.6119 76.3477 92.6311 77.0761 93.4717 77.989C93.9918 78.6173 94.6441 79.122 95.3816 79.4667C96.1191 79.8113 96.9235 79.9873 97.7368 79.9821C98.5491 79.9815 99.3516 79.8028 100.088 79.4586C100.825 79.1143 101.478 78.6128 102.002 77.989C103.183 76.7669 104.649 75.8607 106.267 75.3529C106.534 75.2811 106.813 75.2714 107.084 75.3246C107.355 75.3778 107.61 75.4925 107.83 75.66C108.05 75.8275 108.23 76.0432 108.354 76.2909C108.479 76.5385 108.545 76.8114 108.549 77.0888C108.535 77.4963 108.388 77.8876 108.129 78.2017C107.87 78.5159 107.516 78.735 107.12 78.8248C106.049 79.1816 105.087 79.8089 104.326 80.6465C103.495 81.557 102.488 82.2871 101.365 82.792C100.243 83.2969 99.0301 83.566 97.8007 83.5826Z" fill="#808285"/>
</g>
<defs>
<clipPath id="clip0_148_11490">
<rect width="130" height="103" fill="white" transform="translate(0.642212)"/>
</clipPath>
</defs>
</svg>
